<svg width="135" height="150" viewBox="0 0 135 150" fill="none" xmlns="http://www.w3.org/2000/svg">
<path d="M0 15C0 6.71574 7.95284 0 17.7632 0H35.5263V135C35.5263 143.284 27.5735 150 17.7632 150H0V15Z" fill="url(#paint0_linear_431_5930)"/>
<path d="M49.7368 15C49.7368 6.71574 57.6897 0 67.5 0H85.2632V75C85.2632 83.2843 77.3103 90 67.5 90H49.7368V15Z" fill="url(#paint1_linear_431_5930)"/>
<path d="M117.237 0C107.427 0 99.4737 6.71574 99.4737 15V150H117.237C127.047 150 135 143.284 135 135V0H117.237Z" fill="url(#paint2_linear_431_5930)"/>
<defs>
<linearGradient id="paint0_linear_431_5930" x1="42" y1="25.875" x2="113.313" y2="161.411" gradientUnits="userSpaceOnUse">
<stop stop-color="#006FFF"/>
<stop offset="1" stop-color="#00FFD1"/>
</linearGradient>
<linearGradient id="paint1_linear_431_5930" x1="42" y1="25.875" x2="113.313" y2="161.411" gradientUnits="userSpaceOnUse">
<stop stop-color="#006FFF"/>
<stop offset="1" stop-color="#00FFD1"/>
</linearGradient>
<linearGradient id="paint2_linear_431_5930" x1="42" y1="25.875" x2="113.313" y2="161.411" gradientUnits="userSpaceOnUse">
<stop stop-color="#006FFF"/>
<stop offset="1" stop-color="#00FFD1"/>
</linearGradient>
</defs>
</svg>
